# xmcd
#
# Track frame offsets:
#	150
#	15173
#	25074
#	37341
#	47596
#	58495
#	81728
#	91342
#	103380
#	112914
#	129403
#	141149
#	159067
#	169890
#	184546
#	195017
#	211525
#	224253
#	241196
#	255754
#
# Disc length: 3614 seconds
#
# Revision: 0
# Processed by: cddbd v1.5.2PL0 Copyright (c) Steve Scherf et al.
# Submitted via: EZCDAudioConverter 2.8.0.1
#
DISCID=000e1c14
DTITLE=Skeeter Davis - Bring It On Home and The Hillbilly Singer
DYEAR=1972
DGENRE=Country
TTITLE0=One Tin Soldier
TTITLE1=Bring It On Home
TTITLE2=Never Ending Song Of Love
TTITLE3=He Loved Me Too Little
TTITLE4=Take me Home  Country Roads
TTITLE5=Loving him Was Easier (Than Anything I'll Ever Do Again)
TTITLE6=All I Ever Wanted Was Love
TTITLE7=Just As Soon As I Get Over Loving You
TTITLE8=Reason To Believe
TTITLE9=The Night They Drove Old Dixie Down
TTITLE10=A Hillbilly Song
TTITLE11=Color Of The Blues
TTITLE12=You Done Me Wrong
TTITLE13=Making Believe
TTITLE14=Try Jesus
TTITLE15=Crazy Arms
TTITLE16=My Shoes Keep Walking Back To You
TTITLE17=It Wasn't God Who Made Honky Tonk Angels
TTITLE18=Half A Mind
TTITLE19=How Long Has It Been
EXTD=
EXTT0=
EXTT1=
EXTT2=
EXTT3=
EXTT4=
EXTT5=
EXTT6=
EXTT7=
EXTT8=
EXTT9=
EXTT10=
EXTT11=
EXTT12=
EXTT13=
EXTT14=
EXTT15=
EXTT16=
EXTT17=
EXTT18=
EXTT19=
PLAYORDER=
